<svg width="40" height="40" viewBox="0 0 40 40" fill="none" xmlns="http://www.w3.org/2000/svg">
<g clip-path="url(#clip0_1423_3045)">
<path d="M6.0026 9.33333L20.0026 4L35.3359 8L36.6693 20L31.3359 31.3333L20.0026 37.3333L10.6693 32.6667L5.33594 26V14.6667L6.0026 9.33333Z" fill="white"/>
<path d="M18.5956 0.256297C19.3879 -0.0427165 20.2509 -0.0800929 21.0609 0.144168L21.4044 0.256297L35.4044 5.53985C36.8617 6.08977 37.8597 7.43485 37.9864 8.97605L38 9.30909V20.1031C38 26.7628 34.3712 32.8676 28.582 36.0267L28.0499 36.3057L21.3416 39.6812C20.5908 40.0591 19.722 40.1011 18.9451 39.8071L18.6584 39.6812L11.9502 36.3057C6.0314 33.3273 2.22853 27.3308 2.00996 20.7069L2 20.1031V9.30909C2 7.74293 2.90099 6.33009 4.29044 5.66964L4.59549 5.53985L18.5956 0.256297ZM20 4.02555L6 9.30909V20.1031C6 25.2619 8.79963 29.9928 13.2706 32.4581L13.739 32.7051L20 35.8557L26.2611 32.7051C30.8459 30.3981 33.7983 25.7623 33.99 20.6351L34 20.1031V9.30909L20 4.02555Z" fill="#5699FF"/>
<path d="M25.6405 16.3764C25.1615 15.8745 24.3847 15.8745 23.9053 16.3764L18.2636 22.2845L16.0945 20.0131L15.9791 19.9061C15.4976 19.5143 14.8017 19.5499 14.3594 20.0131C13.8802 20.5148 13.8802 21.3284 14.3594 21.8301L17.3092 24.9193L17.4269 25.0292C17.9568 25.4685 18.7285 25.4319 19.218 24.9193L25.6405 18.1935L25.7427 18.0724C26.1169 17.5684 26.0829 16.8395 25.6405 16.3764Z" fill="#5699FF"/>
</g>
<defs>
<clipPath id="clip0_1423_3045">
<rect width="36" height="40" fill="white" transform="translate(2)"/>
</clipPath>
</defs>
</svg>
